<?xml version="1.0" standalone="no"?><!DOCTYPE svg PUBLIC "-//W3C//DTD SVG 1.1//EN" "http://www.w3.org/Graphics/SVG/1.1/DTD/svg11.dtd"><svg t="1519463068212" class="icon" style="" viewBox="0 0 1024 1024" version="1.1" xmlns="http://www.w3.org/2000/svg" p-id="1686" xmlns:xlink="http://www.w3.org/1999/xlink" width="45" height="45"><defs><style type="text/css"></style></defs><path d="M512 526.920559C627.36556 526.920559 720.887824 388.636618 720.887824 273.271058 720.887824 157.905498 627.36556 64.383234 512 64.383234 396.63444 64.383234 303.112176 157.905498 303.112176 273.271058 303.112176 388.636618 396.63444 526.920559 512 526.920559Z" p-id="1687" fill="#1890ff"></path><path d="M138.986028 795.697556C138.986028 739.255073 179.926628 673.072662 230.432504 647.873462L323.330409 601.523353 393.697527 844.251261C393.697527 844.251261 395.665621 865.254552 430.842897 865.254552 466.020174 865.254552 466.020174 844.251261 466.020174 844.251261L466.020174 646.28503C466.020174 646.28503 467.616473 601.523353 513.483522 601.523353 559.350571 601.523353 559.350571 646.28503 559.350571 646.28503L559.350571 844.251261C559.350571 844.251261 571.342968 869.13051 599.758437 869.13051 628.173908 869.13051 631.602637 844.251261 631.602637 844.251261L700.49616 601.523353 793.549033 647.907144C844.063725 673.087053 885.013972 739.246607 885.013972 795.697556L885.013972 857.418612C885.013972 913.861094 839.259943 959.616766 782.821851 959.616766L241.178149 959.616766C184.738999 959.616766 138.986028 913.86956 138.986028 857.418612L138.986028 795.697556Z" p-id="1688" fill="#1890ff"></path></svg>